#!OML:ASF F:\VICON\USERDATA\INSTALL\rory3\rory3.ASF
:FULLY-SPECIFIED
:DEGREES
9
root -6.192828577949555 17.747109712077144 0.5669607287500111 -18.12830881186035 79.67598499437786 -35.04580842757194
lfemur -27.273092481485662 12.796594639476762 -5.391240335364789
ltibia 29.53399862574063
lfoot -10.737887847741467 5.667303255429806
ltoes -24.2820924289734
rfemur -34.28879009542575 4.179608389858956 13.580808647259136
rtibia 29.241694843373736
rfoot -8.173571985799388 -3.004022481631795
rtoes -1.292034903797198
lowerback 1.5884013312551875 2.9058890045172125 -5.1363054489941256
upperback 4.459899171215326 3.921588734200988 2.614368009554994
thorax 3.2051922131776047 1.7810582768931154 5.627492819363079
lowerneck -15.268385065240912 0.9067484285078694 0.6788561096130635
upperneck 37.917780812783214 4.4082588772347275 -3.948152124671482
head 16.237578840331345 1.8388585590893671 -0.9189474625932517
lclavicle -5.008195841241865e-15 -1.0203021528831393e-14
lhumerus 21.617512554588444 -82.55458495110541 73.13199403243388
lradius 28.849107079740406
lwrist 41.0048853778326
lhand 9.289841960682564 68.80167999933242
lfingers 7.125020000000001
lthumb -145.5480180240162 84.51609876187163
rclavicle -5.008195841241865e-15 -1.0203021528831393e-14
rhumerus -11.85098851254844 3.8965908355137477 -102.6819831926598
rradius 38.611711611372634
rwrist -59.17698494696168
rhand -26.960609702126625 -11.705882612113527
rfingers 7.125020000000001
rthumb -0.38203170081653326 -41.68528191180009
10
root -6.210598219138556 17.732910542255944 0.6284624946380526 -14.105909311218028 76.73038596948196 -30.821808975564423
lfemur -25.91399370487859 13.623494147564333 -4.281171464466076
ltibia 29.718698340798063
lfoot -11.004087648474608 7.805692452542983
ltoes -23.92269253835779
rfemur -34.66518992618121 4.35574823806563 14.90070681858351
rtibia 28.957595148373915
rfoot -7.851652161273605 -0.08317222511244715
rtoes 4.1754614808092185
lowerback 1.8422309100323386 2.4597394452415524 -5.643545018504825
upperback 4.395209253964367 3.315769195230807 2.2628786775075116
thorax 3.071262486817829 1.4707087816138142 5.533403009102287
lowerneck -14.872086074590168 2.430168540458591 0.9022504538979085
upperneck 37.33508145364854 6.665007961946433 -4.325771571723028
head 15.961579692849767 2.733827781013053 -0.7278892473925365
lclavicle -5.008195167603529e-15 -1.0203021459588131e-14
lhumerus 31.466709805138287 -82.43968498275744 63.44599828077811
lradius 28.73640713465271
lwrist 39.358886396379866
lhand 10.005881408749298 55.79998558483115
lfingers 7.125020000000001
lthumb -144.86801856961586 262.32498833743296
rclavicle -5.008195167603529e-15 -1.0203021459588131e-14
rhumerus -12.612388350447112 4.804920440464398 -102.31698338961789
rradius 41.32961060638887
rwrist -62.63598366721801
rhand -30.67460772098589 -13.198181641580568
rfingers 7.125020000000001
rthumb -3.9689277118618076 -43.14088098684492
11
root -6.208838254676393 17.725610969038005 0.723007134745443 -11.110609683067082 73.31118710136522 -27.824209364452116
lfemur -24.222295227661206 14.986393336792187 -3.031612735448803
ltibia 29.619698493528514
lfoot -11.413287342163654 9.456471832735767
ltoes -22.160793074596764
rfemur -35.04458975558767 5.174457532520543 16.282604904009013
rtibia 28.66699546035229
rfoot -7.8025721880264625 2.446165384679798
rtoes 2.148152821371312
lowerback 1.082512170763613 1.9420799566062579 -6.5564642437191765
upperback 4.496289124666559 2.6811996781394063 1.9823492106114995
thorax 3.67477125375121 1.0989093862703487 5.795732480095117
lowerneck -14.284787570403516 4.008947620138836 1.1480447324336556
upperneck 36.375982508486345 8.974027025458547 -4.862370785980384
head 15.493581138424481 3.64999698450571 -0.6123133270625183
lclavicle -5.008195581654998e-15 -1.0203021445808438e-14
lhumerus 37.37890815472019 -81.61228521068428 58.400900493592644
lradius 28.288707352791373
lwrist 36.735388019805654
lhand 12.548879448570341 63.13248243480696
lfingers 7.125020000000001
lthumb -142.46002050168067 269.05498794287126
rclavicle -5.008195581654998e-15 -1.0203021445808438e-14
rhumerus -13.040288259347662 5.68283005864526 -101.5799837873113
rradius 44.160409559658646
rwrist -65.70048253342951
rhand -34.398905734350905 -13.805681246486564
rfingers 7.125020000000001
rthumb -7.564595718042925 -43.65038066308519
12
root -6.205558320905997 17.713611670597555 0.8105608014645966 -10.318909781352133 70.20108813092506 -27.016709469211605
lfemur -22.704896593547804 16.2310925963357 -1.571564220530231
ltibia 29.741698305315236
lfoot -11.400287351894887 11.121491207582016
ltoes -24.310092420451547
rfemur -35.072989742817924 5.929956881448355 17.923502630599025
rtibia 28.135596030845427
rfoot -7.700102243881472 4.859224439993838
rtoes 3.673711812592206
lowerback 0.7848626647043555 1.2199706699346349 -6.854123991098241
upperback 4.456369175730778 1.7445003909693335 1.6682498075100913
thorax 3.943890703896381 0.6139981748803802 5.632662808937411
lowerneck -14.090888064253704 5.625656677708532 1.510153669558413
upperneck 35.92658300274569 11.366996054922405 -5.345740078182353
head 15.413781384913506 4.616056144624596 -0.46880766764239334
lclavicle -5.0081954044344495e-15 -1.0203021374153743e-14
lhumerus 48.01130518663607 -81.08378535627213 48.516304829044174
lradius 28.276207358881912
lwrist 34.48338941334666
lhand 13.956578363496126 62.98118249980499
lfingers 7.125020000000001
lthumb -141.1310215680072 268.5389879731228
rclavicle -5.0081954044344495e-15 -1.0203021374153743e-14
rhumerus -13.30308820339799 4.640330512047603 -101.01998408949342
rradius 46.930208535484006
rwrist -66.70368216227064
rhand -38.1408037383276 -14.230180970408558
rfingers 7.125020000000001
rthumb -11.175103715995172 -43.91258049647112
